<?xml version="1.0" standalone="no"?>
<!DOCTYPE svg PUBLIC "-//W3C//DTD SVG 20010904//EN"
 "http://www.w3.org/TR/2001/REC-SVG-20010904/DTD/svg10.dtd">
<svg version="1.0" xmlns="http://www.w3.org/2000/svg"
 width="18.000000pt" height="18.000000pt" viewBox="0 0 96.000000 96.000000"
 preserveAspectRatio="xMidYMid meet">

<g transform="translate(0.000000,96.000000) scale(0.100000,-0.100000)"
fill="#4BB543" stroke="none">
<path d="M387 869 c-20 -5 -58 -20 -85 -33 -81 -43 -80 -41 -48 -75 l28 -29
34 20 c19 11 53 26 77 33 40 11 42 14 45 54 2 22 0 41 -5 40 -4 -1 -25 -5 -46
-10z"/>
<path d="M522 838 c3 -38 6 -43 33 -49 83 -17 166 -84 212 -172 24 -45 28 -64
28 -137 0 -73 -4 -92 -28 -137 -46 -88 -129 -155 -212 -172 -27 -6 -30 -11
-33 -49 l-3 -42 33 6 c57 10 155 61 202 105 29 26 60 70 84 117 35 72 37 81
37 172 0 91 -2 100 -37 172 -24 47 -55 91 -84 117 -47 44 -145 95 -202 105
l-33 6 3 -42z"/>
<path d="M126 658 c-19 -40 -37 -88 -40 -106 l-6 -33 42 3 c39 3 42 5 53 45 7
24 22 58 33 77 l20 34 -27 26 c-15 14 -30 26 -34 26 -3 0 -22 -33 -41 -72z"/>
<path d="M543 518 l-103 -103 -45 45 c-48 47 -63 48 -89 7 -9 -14 2 -30 62
-89 l72 -73 130 130 c71 71 130 135 130 141 0 13 -32 44 -46 44 -5 0 -55 -46
-111 -102z"/>
<path d="M86 408 c6 -32 51 -137 73 -168 8 -12 15 -10 40 14 l29 28 -20 34
c-11 19 -26 53 -33 77 -11 40 -14 42 -53 45 l-42 3 6 -33z"/>
<path d="M254 199 c-24 -25 -26 -32 -14 -40 31 -22 136 -67 168 -73 l33 -6 -3
42 c-3 39 -5 42 -45 53 -24 7 -58 22 -77 33 l-34 20 -28 -29z"/>
</g>
</svg>
